<?xml version="1.0" encoding="iso-8859-1"?>
<!-- Generator: Adobe Illustrator 19.0.0, SVG Export Plug-In . SVG Version: 6.00 Build 0)  -->
<svg version="1.1" id="Capa_1" xmlns="http://www.w3.org/2000/svg" xmlns:xlink="http://www.w3.org/1999/xlink" x="0px" y="0px"
	 viewBox="0 0 463 463" style="enable-background:new 0 0 463 463;" xml:space="preserve">
<g>
	<path d="M167.5,92C97.196,92,40,149.196,40,219.5S97.196,347,167.5,347S295,289.804,295,219.5S237.804,92,167.5,92z M167.5,332
		C105.467,332,55,281.532,55,219.5S105.467,107,167.5,107S280,157.468,280,219.5S229.533,332,167.5,332z"/>
	<path d="M241.179,256.851l-41.777-36.554l28.592-25.018c7.256-6.35,11.603-15.519,11.923-25.155
		c0.321-9.638-3.405-19.075-10.224-25.894c-0.014-0.014-0.032-0.032-0.05-0.051c-3.414-3.396-8.126-5.244-12.943-5.09
		c-4.829,0.161-9.424,2.339-12.607,5.976l-36.555,41.777l-25.018-28.593c-6.35-7.257-15.519-11.603-25.155-11.924
		c-9.647-0.331-19.076,3.405-25.911,10.241c-3.417,3.417-5.284,8.146-5.123,12.977c0.161,4.829,2.339,9.424,5.975,12.606
		l41.777,36.554l-28.592,25.018c-7.256,6.35-11.603,15.519-11.923,25.155c-0.321,9.638,3.405,19.075,10.224,25.894
		c0.014,0.014,0.032,0.032,0.05,0.051c3.278,3.26,7.754,5.1,12.366,5.1c0.192,0,0.384-0.004,0.577-0.01
		c4.829-0.161,9.424-2.339,12.607-5.976l36.555-41.777l25.018,28.593c6.35,7.257,15.519,11.603,25.155,11.924
		c0.384,0.013,0.767,0.02,1.15,0.02c9.234-0.001,18.197-3.697,24.76-10.261c3.417-3.417,5.284-8.147,5.124-12.977
		C246.994,264.627,244.815,260.032,241.179,256.851z M215.383,154.942c0.628-0.718,1.408-0.848,1.817-0.861
		c0.415-0.015,1.196,0.063,1.871,0.738c0.012,0.012,0.026,0.026,0.042,0.041c3.935,3.948,5.999,9.19,5.813,14.763
		c-0.186,5.585-2.604,10.687-6.81,14.366l-29.299,25.637c-2.322-4.992-6.343-9.038-11.319-11.387L215.383,154.942z M167.5,228
		c-4.687,0-8.5-3.813-8.5-8.5s3.813-8.5,8.5-8.5s8.5,3.813,8.5,8.5S172.187,228,167.5,228z M101.324,169.043
		c-0.014-0.409,0.064-1.196,0.755-1.887c3.951-3.952,9.199-6.018,14.788-5.839c5.584,0.186,10.687,2.604,14.366,6.809l26.326,30.087
		c-4.938,2.316-8.945,6.297-11.288,11.22l-44.084-38.573C101.468,170.232,101.338,169.452,101.324,169.043z M118.104,284.058
		c-0.628,0.718-1.408,0.848-1.817,0.861c-0.416,0.025-1.196-0.064-1.871-0.738c-0.012-0.012-0.026-0.026-0.042-0.041
		c-3.935-3.948-5.999-9.19-5.813-14.763c0.186-5.585,2.604-10.687,6.81-14.366l30.392-26.593c2.086,5.066,5.892,9.249,10.688,11.815
		L118.104,284.058z M231.408,271.844c-3.951,3.952-9.192,6.036-14.788,5.839c-5.584-0.186-10.687-2.604-14.366-6.809l-25.907-29.609
		c5.12-2.089,9.343-5.932,11.919-10.781l43.036,37.655c0.717,0.628,0.848,1.408,0.861,1.816
		C232.177,270.365,232.099,271.153,231.408,271.844z"/>
	<path d="M439.5,52h-416C10.542,52,0,62.542,0,75.5v288C0,376.458,10.542,387,23.5,387H24v8.5c0,8.547,6.953,15.5,15.5,15.5h18.234
		c6.682,0,12.591-4.259,14.705-10.598L76.906,387h309.188l4.467,13.402c2.113,6.339,8.022,10.598,14.705,10.598H423.5
		c8.547,0,15.5-6.953,15.5-15.5V387h0.5c12.958,0,23.5-10.542,23.5-23.5v-288C463,62.542,452.458,52,439.5,52z M58.208,395.658
		C58.14,395.862,57.95,396,57.734,396H39.5c-0.276,0-0.5-0.225-0.5-0.5V387h22.094L58.208,395.658z M424,395.5
		c0,0.275-0.224,0.5-0.5,0.5h-18.234c-0.216,0-0.406-0.138-0.474-0.342L401.906,387H424V395.5z M448,363.5
		c0,4.687-3.813,8.5-8.5,8.5h-416c-4.687,0-8.5-3.813-8.5-8.5v-288c0-4.687,3.813-8.5,8.5-8.5h416c4.687,0,8.5,3.813,8.5,8.5V363.5z
		"/>
</g>
<g>
</g>
<g>
</g>
<g>
</g>
<g>
</g>
<g>
</g>
<g>
</g>
<g>
</g>
<g>
</g>
<g>
</g>
<g>
</g>
<g>
</g>
<g>
</g>
<g>
</g>
<g>
</g>
<g>
</g>
</svg>
