<?xml version='1.0' encoding='iso-8859-1'?>
<!DOCTYPE svg PUBLIC '-//W3C//DTD SVG 1.1//EN' 'http://www.w3.org/Graphics/SVG/1.1/DTD/svg11.dtd'>
<svg version="1.1" xmlns="http://www.w3.org/2000/svg" viewBox="0 0 480.727 480.727" xmlns:xlink="http://www.w3.org/1999/xlink" enable-background="new 0 0 480.727 480.727">
  <g>
    <path d="m404.94,234.017c0.651,0.175 1.305,0.258 1.949,0.258 3.31,0 6.34-2.208 7.239-5.558l3.957-14.743c1.074-4-1.299-8.114-5.3-9.188-3.995-1.073-8.114,1.298-9.188,5.3l-3.957,14.743c-1.074,4.001 1.299,8.114 5.3,9.188z"/>
    <path d="m328.716,322.07c0.535,0 1.079-0.058 1.623-0.178 35.096-7.743 63.523-32.453 76.041-66.099 1.444-3.882-0.532-8.2-4.414-9.645-3.881-1.444-8.2,0.532-9.645,4.414-10.734,28.851-35.113,50.041-65.214,56.682-4.045,0.892-6.601,4.895-5.708,8.939 0.772,3.502 3.874,5.887 7.317,5.887z"/>
    <path d="m473.227,147.369h-419.979v-34.714c7.10543e-15-4.761 2.875-8.783 6.278-8.783h86.911c2.037,0 4.306,2.65 4.306,6.453v7.319c0,4.142 3.358,7.5 7.5,7.5s7.5-3.358 7.5-7.5v-7.319c0-11.829-8.661-21.453-19.306-21.453h-86.911c-11.732,0-21.278,10.669-21.278,23.783v34.714h-19.498c-4.142,0-7.5,3.358-7.5,7.5v28.499c0,4.142 3.358,7.5 7.5,7.5h10.496v86.317c0,28.365 15.396,53.188 38.26,66.598v25.952c0,12.197 9.923,22.12 22.12,22.12s22.12-9.923 22.12-22.12v-15.38h195.97c8.598,0 17.049-0.816 25.27-2.383v17.764c0,12.197 9.923,22.12 22.13,22.12 12.197,0 22.12-9.923 22.12-22.12v-34.672c29.36-17.626 51.816-46.194 61.134-80.935l16.978-63.261h17.88c4.142,0 7.5-3.358 7.5-7.5v-28.499c-0.001-4.142-3.359-7.5-7.501-7.5zm-383.602,229.486c-3.926,0-7.12-3.194-7.12-7.12v-19.193c4.575,1.496 9.337,2.567 14.24,3.184v16.009c0.001,3.926-3.193,7.12-7.12,7.12zm272.61-7.12c0,3.926-3.194,7.12-7.13,7.12-3.926,0-7.12-3.194-7.12-7.12v-21.534c4.864-1.522 9.621-3.31 14.25-5.355v26.889zm61.646-119.493c-14.073,52.468-61.842,89.113-116.166,89.113h-201.29c-34.286,0-62.18-27.889-62.18-62.17v-86.317h395.571l-15.935,59.374zm41.846-74.374h-439.477v-13.499h439.478v13.499z"/>
    <path d="m75.747,142.571c4.142,0 7.5-3.358 7.5-7.5v-2.25h2.25c4.142,0 7.5-3.358 7.5-7.5s-3.358-7.5-7.5-7.5h-2.25v-2.25c0-4.142-3.358-7.5-7.5-7.5s-7.5,3.358-7.5,7.5v2.25h-2.25c-4.142,0-7.5,3.358-7.5,7.5s3.358,7.5 7.5,7.5h2.25v2.25c0,4.142 3.357,7.5 7.5,7.5z"/>
    <path d="m17.25,142.571c4.142,0 7.5-3.358 7.5-7.5v-2.25h2.25c4.142,0 7.5-3.358 7.5-7.5s-3.358-7.5-7.5-7.5h-2.25v-2.25c0-4.142-3.358-7.5-7.5-7.5s-7.5,3.358-7.5,7.5v2.25h-2.25c-4.142,0-7.5,3.358-7.5,7.5s3.358,7.5 7.5,7.5h2.25v2.25c0,4.142 3.357,7.5 7.5,7.5z"/>
  </g>
</svg>
