<?xml version="1.0" encoding="iso-8859-1"?>
<!-- Generator: Adobe Illustrator 16.0.0, SVG Export Plug-In . SVG Version: 6.00 Build 0)  -->
<!DOCTYPE svg PUBLIC "-//W3C//DTD SVG 1.1//EN" "http://www.w3.org/Graphics/SVG/1.1/DTD/svg11.dtd">
<svg version="1.1" id="Capa_1" xmlns="http://www.w3.org/2000/svg" xmlns:xlink="http://www.w3.org/1999/xlink" x="0px" y="0px"
	 width="222.663px" height="222.663px" viewBox="0 0 222.663 222.663" style="enable-background:new 0 0 222.663 222.663;"
	 xml:space="preserve">
<g>
	<g>
		<path d="M157.417,178.394c-1.673-0.979-3.815-0.411-4.791,1.263c-12.945,22.202-36.938,35.997-62.615,35.997
			c-39.935,0-72.423-32.486-72.423-72.423c0-26.402,14.378-50.725,37.524-63.476c1.696-0.936,2.313-3.066,1.381-4.76
			c-0.936-1.695-3.066-2.305-4.758-1.381c-25.386,13.99-41.151,40.666-41.151,69.617c0,43.8,35.631,79.432,79.432,79.432
			c28.161,0,54.471-15.129,68.666-39.481C159.652,181.511,159.088,179.369,157.417,178.394z"/>
		<path d="M211.159,179.41c-1.311-1.427-3.521-1.52-4.952-0.212l-10.684,9.801l-36.785-45.624c-0.037-0.048-0.099-0.068-0.14-0.116
			c-0.165-0.182-0.363-0.318-0.559-0.466c-0.178-0.13-0.339-0.267-0.53-0.362c-0.185-0.086-0.383-0.123-0.582-0.178
			c-0.246-0.068-0.489-0.137-0.746-0.15c-0.058,0-0.109-0.034-0.171-0.034H93.516V80.193h62.133c1.937,0,3.504-1.57,3.504-3.504
			c0-1.936-1.567-3.504-3.504-3.504H93.516V52.123c0-1.935-1.569-3.504-3.504-3.504c-1.934,0-3.504,1.569-3.504,3.504v93.449
			c0,1.937,1.571,3.504,3.504,3.504h64.323l38.082,47.232c0.021,0.028,0.058,0.035,0.079,0.065c0.027,0.031,0.037,0.072,0.064,0.106
			c0.212,0.232,0.486,0.362,0.739,0.526c0.144,0.089,0.253,0.22,0.403,0.288c0.459,0.205,0.945,0.321,1.438,0.321
			c0.404,0,0.808-0.078,1.198-0.223c0.126-0.051,0.236-0.14,0.362-0.201c0.219-0.11,0.441-0.199,0.637-0.359
			c0.027-0.024,0.041-0.059,0.068-0.086c0.034-0.021,0.072-0.034,0.103-0.062l13.436-12.326
			C212.37,183.058,212.466,180.84,211.159,179.41z"/>
		<path d="M90.011,40.005c11.031,0,20.006-8.975,20.006-20.002S101.042,0,90.011,0S70.005,8.975,70.005,20.002
			S78.98,40.005,90.011,40.005z M90.011,7.005c7.166,0,12.998,5.832,12.998,12.994s-5.832,12.994-12.998,12.994
			s-12.998-5.831-12.998-12.994S82.845,7.005,90.011,7.005z"/>
	</g>
</g>
<g>
</g>
<g>
</g>
<g>
</g>
<g>
</g>
<g>
</g>
<g>
</g>
<g>
</g>
<g>
</g>
<g>
</g>
<g>
</g>
<g>
</g>
<g>
</g>
<g>
</g>
<g>
</g>
<g>
</g>
</svg>
