<?xml version="1.0" encoding="iso-8859-1"?>
<!-- Generator: Adobe Illustrator 19.0.0, SVG Export Plug-In . SVG Version: 6.00 Build 0)  -->
<svg version="1.1" id="Capa_1" xmlns="http://www.w3.org/2000/svg" xmlns:xlink="http://www.w3.org/1999/xlink" x="0px" y="0px"
	 viewBox="0 0 470 470" style="enable-background:new 0 0 470 470;" xml:space="preserve">
<g>
	<path d="M325.824,167.374c-0.045,0-0.09,0.002-0.136,0.002l3.718-21.279c0.184-0.587,0.289-1.207,0.323-1.846l19.349-110.748
		c0.845-4.832,5.888-9.07,10.793-9.07h8.503l-21.25,121.629c-0.713,4.08,2.017,7.966,6.097,8.679c0.438,0.076,0.871,0.113,1.3,0.113
		c3.576,0,6.743-2.567,7.379-6.21l21.701-124.211h40.925c4.143,0,7.5-3.358,7.5-7.5s-3.357-7.5-7.5-7.5h-64.654
		c-12.233,0-23.464,9.439-25.568,21.489l-18.42,105.43H103.124c-12.688,0-23.011,10.323-23.011,23.011v48.41
		c0,4.142,3.358,7.5,7.5,7.5s7.5-3.358,7.5-7.5v-48.41c0-4.417,3.594-8.011,8.011-8.011h210.138l-2.945,16.859
		c-42.928,4.612-80.272,28.141-103.511,62.063l-119.193-0.001c-13.449,0-24.39,10.941-24.39,24.39v56.888c0,4.142,3.358,7.5,7.5,7.5
		h9.39v42.673c-21.537,3.149-38.633,20.159-41.902,41.657H7.5c-4.142,0-7.5,3.358-7.5,7.5s3.358,7.5,7.5,7.5h30.711
		c3.627,23.852,24.273,42.188,49.122,42.188c27.398,0,49.688-22.29,49.688-49.688c0-24.751-18.193-45.328-41.908-49.074V319.05
		h64.035c4.142,0,7.5-3.358,7.5-7.5s-3.358-7.5-7.5-7.5H78.223v-49.388c0-5.178,4.212-9.39,9.39-9.39l110.2,0.001
		c-10.322,19.855-16.164,42.395-16.164,66.277c0,79.499,64.677,144.176,144.176,144.176S470,391.049,470,311.55
		C470,232.051,405.323,167.374,325.824,167.374z M122.021,410.88c0,19.127-15.561,34.688-34.688,34.688
		s-34.688-15.561-34.688-34.688s15.561-34.688,34.688-34.688S122.021,391.753,122.021,410.88z M325.824,440.726
		c-71.229,0-129.176-57.948-129.176-129.176c0-71.228,57.948-129.176,129.176-129.176C397.052,182.374,455,240.322,455,311.55
		C455,382.778,397.052,440.726,325.824,440.726z"/>
	<path d="M325.824,198.396c-62.394,0-113.154,50.76-113.154,113.154c0,62.393,50.76,113.153,113.154,113.153
		c62.393,0,113.153-50.76,113.153-113.153C438.978,249.157,388.217,198.396,325.824,198.396z M400.296,375.415l-34.455-34.455
		c6.073-8.241,9.671-18.412,9.671-29.41c0-10.999-3.598-21.169-9.671-29.41l34.455-34.455
		c14.753,17.179,23.682,39.498,23.682,63.865C423.978,335.917,415.049,358.236,400.296,375.415z M291.136,311.55
		c0-19.127,15.562-34.688,34.688-34.688s34.688,15.561,34.688,34.688s-15.561,34.688-34.688,34.688S291.136,330.677,291.136,311.55z
		 M389.689,237.078l-34.455,34.455c-8.241-6.073-18.411-9.671-29.41-9.671c-10.999,0-21.17,3.598-29.411,9.671l-34.454-34.455
		c17.179-14.753,39.498-23.681,63.865-23.681S372.51,222.325,389.689,237.078z M251.352,247.685l34.454,34.455
		c-6.073,8.241-9.671,18.412-9.671,29.41c0,10.999,3.598,21.17,9.671,29.41l-34.454,34.455
		c-14.753-17.179-23.682-39.498-23.682-63.865C227.67,287.182,236.599,264.863,251.352,247.685z M261.959,386.022l34.454-34.455
		c8.241,6.073,18.412,9.671,29.411,9.671c10.998,0,21.169-3.598,29.41-9.671l34.455,34.455
		c-17.179,14.753-39.498,23.681-63.865,23.681S279.138,400.774,261.959,386.022z"/>
</g>
<g>
</g>
<g>
</g>
<g>
</g>
<g>
</g>
<g>
</g>
<g>
</g>
<g>
</g>
<g>
</g>
<g>
</g>
<g>
</g>
<g>
</g>
<g>
</g>
<g>
</g>
<g>
</g>
<g>
</g>
</svg>
